<?xml version="1.0" encoding="UTF-8" standalone="no"?>
<!-- Created with Inkscape (http://www.inkscape.org/) -->

<svg
   width="10mm"
   height="10mm"
   viewBox="0 0 10 10"
   version="1.1"
   id="svg1"
   inkscape:version="1.4.3 (0d15f75042, 2025-12-25)"
   sodipodi:docname="earth.svg"
   xmlns:inkscape="http://www.inkscape.org/namespaces/inkscape"
   xmlns:sodipodi="http://sodipodi.sourceforge.net/DTD/sodipodi-0.dtd"
   xmlns="http://www.w3.org/2000/svg"
   xmlns:svg="http://www.w3.org/2000/svg">
  <sodipodi:namedview
     id="namedview1"
     pagecolor="#ffffff"
     bordercolor="#000000"
     borderopacity="0.25"
     inkscape:showpageshadow="2"
     inkscape:pageopacity="0.0"
     inkscape:pagecheckerboard="0"
     inkscape:deskcolor="#d1d1d1"
     inkscape:document-units="mm"
     inkscape:zoom="18.928193"
     inkscape:cx="20.287198"
     inkscape:cy="20.207951"
     inkscape:window-width="1690"
     inkscape:window-height="1096"
     inkscape:window-x="0"
     inkscape:window-y="0"
     inkscape:window-maximized="1"
     inkscape:current-layer="layer1" />
  <defs
     id="defs1" />
  <g
     inkscape:label="Layer 1"
     inkscape:groupmode="layer"
     id="layer1">
    <circle
       style="fill:none;stroke:#000000;stroke-width:0.2;stroke-linejoin:round"
       id="path1"
       cx="5"
       cy="5"
       r="4.5" />
    <path
       style="fill:none;stroke:#000000;stroke-width:0.2;stroke-linejoin:round"
       d="M 5,0.5 V 0"
       id="path2"
       sodipodi:nodetypes="cc" />
    <path
       style="fill:none;stroke:#000000;stroke-width:0.2;stroke-linejoin:round"
       d="m 3.6623058,9.2536125 c 0.069891,-0.027956 0.1372952,-0.06319 0.2096741,-0.083869 0.026881,-0.00768 0.056456,0.00548 0.08387,0 0.040866,-0.00817 0.07229,-0.042734 0.1118261,-0.055913 0.014425,-0.00481 0.1304769,-0.00931 0.1397829,0 0.00659,0.00659 -0.00659,0.021368 0,0.027956 0.00659,0.00659 0.021368,-0.00659 0.027956,0 0.01165,0.01165 0.00233,0.044264 0.013978,0.055913 0.011322,0.011321 0.129586,0.0051 0.1397825,0 0.011787,-0.0059 0.018637,-0.018637 0.027956,-0.027957 0.018637,-0.00932 0.036566,-0.020217 0.055913,-0.027957 0.047481,-0.018992 0.1502516,-0.048339 0.1956959,-0.055913 0.018383,-0.00306 0.037832,0.00452 0.055913,0 0.052119,-0.013031 0.1515811,-0.064505 0.2096741,-0.083869 0.017682,-0.00589 0.037637,0.00366 0.055913,0 0.037676,-0.00754 0.07415,-0.020421 0.1118262,-0.027957 0.069891,-0.013978 -0.027957,0.027957 0.08387,0 0.029436,-0.00736 0.050644,-0.039032 0.083869,-0.027956 0.01977,0.00659 0.035698,0.022902 0.055913,0.027956 0.022601,0.00565 0.04826,-0.00865 0.069891,0 0.1583929,0.079197 -0.041675,-0.010419 0.1118262,0.027957 0.048685,0.012171 0.091097,0.043742 0.1397825,0.055913 0.00904,0.00225 0.019116,-0.00295 0.027957,0 0.039536,0.013179 0.07715,0.032796 0.1118261,0.055913 0.010964,0.00731 0.016169,0.022064 0.027957,0.027956 0.00833,0.00417 0.019621,-0.00417 0.027956,0 0.011787,0.00589 0.016169,0.022064 0.027957,0.027957 0.025006,0.012502 0.056364,-0.005 0.08387,0 0.1819219,0.033077 0.027579,0.027957 0.153761,0.027957 0.1281996,0 -0.029469,0.00589 0.1397828,-0.027957 0.018275,-0.00366 0.037832,0.00452 0.055913,0 0.020214,-0.00505 0.03548,-0.023871 0.055913,-0.027957 0.027413,-0.00548 0.055913,0 0.083869,0 0.027957,-0.00932 0.055103,-0.021564 0.08387,-0.027956 0.022744,-0.00505 0.053418,0.016473 0.069891,0 0.00659,-0.00659 -0.00659,-0.021368 0,-0.027957 0.00659,-0.00659 0.018637,0 0.027956,0 0.00932,0 0.021368,-0.00659 0.027957,0 0.00659,0.00659 0,0.018637 0,0.027957 0.00932,0 0.021368,-0.00659 0.027956,0 0.00659,0.00659 -0.00659,0.021368 0,0.027956 0.037276,0.037275 0.027957,-0.046594 0.027957,0.027957"
       id="path3" />
    <path
       style="fill:none;stroke:#000000;stroke-width:0.2;stroke-linejoin:round"
       d="m 2.4042619,1.3978267 c 0.024477,0.061485 -0.020917,0.1469216 0,0.209674 0.00417,0.012503 0.022063,0.016169 0.027957,0.027957 0.011183,0.022365 -0.011183,0.061504 0,0.08387 0.00589,0.011788 0.022063,0.016169 0.027957,0.027957 0.00833,0.01667 -0.013179,0.042734 0,0.055913 0.00659,0.00659 0.021367,-0.00659 0.027957,0 9.34e-4,9.34e-4 0.010853,0.099327 0.013978,0.1118262 0.00932,0.037275 0.014826,0.075717 0.027956,0.1118261 0.00574,0.015788 0.024951,0.025406 0.027957,0.041935 0.010002,0.055011 0,0.1118261 0,0.1677392 0,0.027956 0.00884,0.057348 0,0.08387 -0.00417,0.012503 -0.022063,0.016169 -0.027957,0.027957 -0.00833,0.01667 0.013179,0.042734 0,0.055913 -0.00659,0.00659 -0.021367,-0.00659 -0.027956,0 -0.00659,0.00659 0.00417,0.019621 0,0.027957 -0.00392,0.00783 -0.2249982,-0.012633 -0.2376306,0 -0.00659,0.00659 0.00659,0.021367 0,0.027957 -0.013179,0.013179 -0.042734,-0.013179 -0.055913,0 -0.026241,0.026241 0.021123,0.070202 0.027956,0.08387 0.00417,0.00834 -0.00417,0.019621 0,0.027957 0.014355,0.02871 0.041558,0.041181 0.055913,0.069891 0.00417,0.00834 -0.00659,0.021367 0,0.027957 0.00659,0.00659 0.021367,-0.00659 0.027957,0 0.013179,0.013179 -0.00834,0.039243 0,0.055913 0.011788,0.023574 0.032338,0.044126 0.055913,0.055913 0.00834,0.00417 0.021367,-0.00659 0.027957,0 0.00659,0.00659 -0.00659,0.021368 0,0.027956 0.00659,0.00659 0.021367,-0.00659 0.027957,0 0.00659,0.00659 -0.00417,0.019621 0,0.027957 0.00589,0.011787 0.022063,0.016169 0.027957,0.027956 0.00833,0.016669 -0.013179,0.042734 0,0.055913 0.00659,0.00659 0.021367,-0.00659 0.027956,0 0.013179,0.013179 0,0.037276 0,0.055913 0,0.03857 0.013197,0.239192 0,0.2655871 -0.00589,0.011787 -0.022063,0.016169 -0.027956,0.027956 -0.015237,0.030474 0,0.2105271 0,0.251609 0,0.00932 -0.00659,0.021368 0,0.027956 0.00659,0.00659 0.021367,-0.00659 0.027956,0 0.013179,0.013179 -0.00452,0.037832 0,0.055913 0.00758,0.030323 0.032051,0.054217 0.041935,0.08387 0.00295,0.00884 -0.00346,0.019304 0,0.027956 0.00624,0.015597 0.023341,0.025781 0.027957,0.041935 0.00512,0.01792 -0.00834,0.039243 0,0.055913 0.00417,0.00833 0.019621,-0.00417 0.027957,0 0.011787,0.00589 0.016169,0.022064 0.027957,0.027956 0.00833,0.00417 0.021367,-0.00659 0.027956,0 0.014734,0.014735 0.016398,0.038575 0.027957,0.055913 0.013896,0.020844 0.061597,0.072734 0.08387,0.08387 0.00833,0.00417 0.019116,-0.00295 0.027957,0 0.019767,0.00659 0.036145,0.021368 0.055913,0.027956 0.021503,0.00717 0.1198668,0.00996 0.1397826,0 0.011787,-0.00589 0.016169,-0.022064 0.027957,-0.027956 0.00833,-0.00417 0.021368,0.00659 0.027956,0 0.00659,-0.00659 -0.00659,-0.021368 0,-0.027957 0.00659,-0.00659 0.020204,0.00517 0.027957,0 0.00867,-0.00578 0.00584,-0.021447 0.013978,-0.027956 0.181845,-0.1454759 -0.017515,0.022736 0.08387,-0.027957 0.011787,-0.00589 0.016169,-0.022064 0.027957,-0.027956 0.00833,-0.00417 0.021368,0.00659 0.027956,0 0.00659,-0.00659 -0.00659,-0.021368 0,-0.027957 0.00659,-0.00659 0.018637,0 0.027957,0 0.058127,0 0.1419934,-0.017902 0.1956956,0 0.039537,0.013179 0.07229,0.042734 0.1118261,0.055913 0.00884,0.00295 0.019621,-0.00417 0.027957,0 0.023574,0.011787 0.032338,0.044126 0.055913,0.055913 0.00833,0.00417 0.020204,-0.00517 0.027956,0 0.00867,0.00578 0.00584,0.021447 0.013978,0.027957 0.016272,0.013018 0.041179,0.013221 0.055913,0.027956 0.00659,0.00659 -0.00517,0.020204 0,0.027957 0.024852,0.037279 0.091019,0.070212 0.1118261,0.1118262 0.00417,0.00833 -0.00659,0.021368 0,0.027956 0.00659,0.00659 0.022789,-0.00776 0.027957,0 0.016346,0.024519 0.017013,0.056509 0.027956,0.08387 0.024074,0.060188 0.042131,0.084849 0.055913,0.1537608 0.00365,0.018275 -0.00365,0.037637 0,0.055913 0.00578,0.028897 0.023111,0.054802 0.027957,0.08387 0.012957,0.077746 0,0.1722464 0,0.2516087 0,0.027957 0.010382,0.057913 0,0.08387 -0.00624,0.015597 -0.023341,0.025781 -0.027957,0.041935 -0.00512,0.01792 0.00589,0.038232 0,0.055913 -0.00417,0.012501 -0.022064,0.016169 -0.027956,0.027956 -0.00417,0.00833 0.00659,0.021368 0,0.027957 -0.00659,0.00659 -0.021368,-0.00659 -0.027957,0 -0.00659,0.00659 0.00225,0.018915 0,0.027956 -0.00715,0.028589 -0.014777,0.057512 -0.027956,0.08387 -0.00589,0.011787 -0.018637,0.018637 -0.027957,0.027957 -0.00932,0.018637 -0.020217,0.036566 -0.027956,0.055913 -0.010943,0.027361 -0.01161,0.05935 -0.027957,0.083869 -0.00517,0.00776 -0.021368,-0.00659 -0.027957,0 -0.00659,0.00659 0.00659,0.021368 0,0.027957 -0.011737,0.011737 -0.090943,-0.013809 -0.097848,0 -0.036388,0.072776 0.1184825,-0.022632 -0.08387,0.027956 -0.012785,0.0032 -0.015454,0.023789 -0.027957,0.027957 -0.1272659,0 -0.00159,-0.013179 -0.08387,0.027956 -0.016671,0.00833 -0.042734,-0.013179 -0.055913,0 -0.00659,0.00659 0,0.018637 0,0.027957 0,0.030561 -0.013332,0.099141 0,0.1258044 0.00589,0.011787 0.022064,0.016169 0.027956,0.027957 0.015182,0.030361 -0.00259,0.1443908 0,0.1677392 0.015327,0.1379553 0.050756,0.2729145 0.08387,0.4053697 0.010403,0.041618 0,0.097303 0,0.1397825 0,0.01706 0.010893,0.1009333 0,0.1118262 -0.013179,0.013179 -0.042734,-0.013179 -0.055913,0 -0.00659,0.00659 0.00659,0.021368 0,0.027957 -0.00394,0.00394 -0.078135,0.00287 -0.08387,0 -0.011787,-0.00589 -0.016169,-0.022064 -0.027956,-0.027957 -0.00833,-0.00417 -0.019116,0.00295 -0.027957,0 -0.019767,-0.00659 -0.036145,-0.021368 -0.055913,-0.027956 -0.00884,-0.00295 -0.019622,0.00417 -0.027956,0 -0.011787,-0.00589 -0.016169,-0.022064 -0.027957,-0.027957 -0.00833,-0.00417 -0.021368,0.00659 -0.027956,0 -0.013179,-0.013179 0.013179,-0.042734 0,-0.055913 -0.00659,-0.00659 -0.021368,0.00659 -0.027957,0 -0.013179,-0.013179 0.00833,-0.039243 0,-0.055913 -0.0059,-0.011787 -0.022064,-0.016169 -0.027956,-0.027956 -0.014909,-0.02982 0.014909,-0.082006 0,-0.1118262 -0.00589,-0.011787 -0.022064,-0.016169 -0.027957,-0.027957 -0.00417,-0.00833 0,-0.018637 0,-0.027956 -0.00932,-0.00932 -0.020646,-0.016992 -0.027956,-0.027957 -0.00746,-0.011181 -0.00757,-0.063479 -0.013978,-0.069891 -0.00758,-0.00758 -0.1281977,-0.080008 -0.1397828,-0.08387 -0.00884,-0.00295 -0.019621,0.00417 -0.027956,0 -0.011787,-0.00589 -0.015454,-0.023789 -0.027957,-0.027956 -0.021765,-0.00725 -0.1598605,0.00788 -0.1677393,0 -0.00659,-0.00659 0.00659,-0.021368 0,-0.027957 -0.023072,-0.023072 -0.1280161,0.025818 -0.1397826,0.027957 -0.03209,0.00583 -0.065758,-0.00583 -0.097848,0 -0.020502,0.00373 -0.03548,0.023871 -0.055913,0.027956 -0.063032,0.012607 -0.089927,-0.0219 -0.1397826,0.027957 -0.00659,0.00659 0,0.018637 0,0.027956 0,0.1180415 0.049532,0.057129 0.08387,0.1258046 0.00417,0.00833 -0.00417,0.019621 0,0.027956 0.011787,0.023574 0.032338,0.044126 0.055913,0.055913 0.00833,0.00417 0.021367,-0.00659 0.027957,0 0.00659,0.00659 -0.00659,0.021368 0,0.027957 0.00659,0.00659 0.019621,-0.00417 0.027957,0 0.047498,0.023749 0.024323,0.031405 0.097848,0.055913 0.017681,0.00589 0.042734,-0.013179 0.055913,0 0.013179,0.013179 -0.00834,0.039243 0,0.055913 0.011787,0.023574 0.047578,0.030908 0.055913,0.055913 0,0.1272659 -0.013179,0.00159 0.027956,0.083869 0.00833,0.016671 -0.00692,0.038608 0,0.055913 0.021683,0.054207 0.063918,0.098894 0.08387,0.1537611 0.00961,0.026427 0.078732,0.2487411 0.08387,0.2795653 0.0046,0.027576 -0.00548,0.056456 0,0.08387 0.00409,0.020434 0.023871,0.03548 0.027957,0.055913 0.00548,0.027414 -0.005,0.056364 0,0.08387 0.00449,0.024688 0.022513,0.045397 0.027956,0.069891 0.013769,0.061958 -0.015375,0.1341922 0,0.1956956 0.00505,0.020214 0.023871,0.03548 0.027957,0.055913 0.010964,0.054827 0,0.1118261 0,0.1677392 0,0.1609696 -0.015909,0.3301465 0,0.4892394 0.00564,0.056403 0.020926,0.1114926 0.027956,0.1677393 0.00846,0.067647 0,0.1413129 0,0.2096738 0,0.090554 -0.00602,0.1529149 -0.027956,0.2516089 -0.00639,0.028767 -0.022177,0.054973 -0.027957,0.083869 -0.00548,0.027414 0.01977,0.064101 0,0.08387 -0.00659,0.00659 -0.018637,0 -0.027956,0"
       id="path4" />
    <path
       style="fill:none;stroke:#000000;stroke-width:0.2;stroke-linejoin:round"
       d="M 7.2826771,1.1741744 C 7.1086537,1.392263 6.949469,1.620881 6.7654812,1.8311529 c -0.026035,0.029754 -0.066188,0.048507 -0.08387,0.08387 -0.00833,0.01667 0.013179,0.042734 0,0.055913 -0.00659,0.00659 -0.023789,-0.00834 -0.027956,0 -0.00621,0.012425 0.00466,0.080375 0,0.097848 -0.1745536,0.6545756 0.039182,-0.2462104 -0.08387,0.3075219 -0.00833,0.037508 -0.021278,0.073988 -0.027956,0.1118261 -0.00733,0.041551 -0.00288,0.085098 -0.013978,0.1258044 -0.00347,0.012715 -0.022064,0.016169 -0.027957,0.027957 -0.0043,0.0086 -0.0043,0.075267 0,0.08387 0.00589,0.011787 0.022064,0.016169 0.027957,0.027956 0.015391,0.030781 6.879e-4,0.057263 0.013978,0.08387 0.026865,0.053729 0.1258774,0.019585 0.1677392,0.027956 0.020434,0.00409 0.035698,0.022902 0.055913,0.027957 0.027122,0.00678 0.058865,-0.012502 0.083869,0 0.011787,0.00589 0.018637,0.018637 0.027957,0.027956 0.018637,0 0.038232,-0.00589 0.055913,0 0.019354,0.00645 0.1053746,0.092472 0.1118262,0.1118261 0.00589,0.017682 -0.00452,0.037832 0,0.055913 0.00505,0.020214 0.023437,0.035572 0.027956,0.055913 0.019016,0.085576 -0.023601,0.095548 -0.055913,0.1817174 -0.042551,0.1134691 -0.056259,0.2243435 -0.1118258,0.335478 -0.047209,0.094418 -0.1099693,0.1789322 -0.1677393,0.2655872 -0.01156,0.017338 -0.013221,0.041179 -0.027956,0.055913 -0.00659,0.00659 -0.021368,-0.00659 -0.027957,0 -0.01025,0.01025 0.00373,0.068959 0,0.083869 -0.00715,0.028589 -0.020809,0.055281 -0.027956,0.08387 -0.011525,0.046098 -0.015714,0.09387 -0.027957,0.1397825 -0.00647,0.024244 -0.022513,0.045397 -0.027956,0.069892 -0.00809,0.036388 0.016671,0.078486 0,0.1118258 -5.292e-4,0.00106 -0.066048,-0.010133 -0.027957,0.027957 0.00659,0.00659 0.021368,-0.00659 0.027957,0 0.00659,0.00659 0,0.018637 0,0.027956 0,0.037276 -0.00527,0.074925 0,0.1118262 0.00417,0.029173 0.022177,0.054973 0.027956,0.08387 0.015531,0.077657 -0.023297,0.046594 0,0.1397826 0.00699,0.02795 0.070838,0.071784 0.08387,0.097848 0.00417,0.00833 -0.00659,0.021368 0,0.027957 0.014735,0.014735 0.041179,0.013221 0.055913,0.027956 0.00659,0.00659 -0.00659,0.021368 0,0.027957 0.00659,0.00659 0.018637,0 0.027956,0 0.028933,0 0.123788,0.015994 0.1397828,0 0.00659,-0.00659 -0.00659,-0.021368 0,-0.027957 0.00659,-0.00659 0.019622,0.00417 0.027956,0 0.011787,-0.00589 0.016992,-0.020646 0.027957,-0.027956 0.017338,-0.01156 0.036145,-0.021368 0.055913,-0.027957 0.00884,-0.00295 0.02068,0.00582 0.027956,0 0.018193,-0.014555 0.025461,-0.03944 0.041935,-0.055913 0.03169,-0.03169 0.030777,0.00834 0.055913,-0.041935 0.00417,-0.00833 -0.00659,-0.021368 0,-0.027957 0.057843,-0.057843 -0.00225,0.088392 0.055913,-0.027957 0.00833,-0.016671 -0.00833,-0.039243 0,-0.055913 0.00389,-0.00778 0.052023,-0.07609 0.055913,-0.083869 0.00417,-0.00833 -0.00659,-0.021368 0,-0.027957 0.00659,-0.00659 0.019116,0.00295 0.027956,0 0.01977,-0.00659 0.035698,-0.022902 0.055913,-0.027956 0.028281,-0.00707 0.11087,-0.00964 0.1397828,0 0.019767,0.00659 0.036145,0.021368 0.055913,0.027956 0.017682,0.00589 0.039243,-0.00833 0.055913,0 0.061813,0.030907 0.00868,0.017351 0.027956,0.055913 0.00589,0.011787 0.022064,0.016169 0.027957,0.027957 0.00868,0.017349 0,0.09939 0,0.1118261 0,0.063609 0.00357,0.119289 0.013978,0.1817175 0.00507,0.030428 -0.013589,0.084649 0,0.1118261 0.00589,0.011787 0.018637,0.018637 0.027956,0.027956 0.1854404,0.1854404 -0.052715,-0.026358 0.1118262,0.055913 0.023574,0.011787 0.033982,0.041292 0.055913,0.055913 0.00775,0.00517 0.019621,-0.00417 0.027957,0 0.011787,0.00589 0.015454,0.023789 0.027956,0.027957 0.035363,0.011787 0.075664,-0.00904 0.1118261,0 0.020217,0.00505 0.035359,0.024529 0.055913,0.027956 0.106444,0.01774 0.2642375,0 0.3774133,0 0.065465,0 0.1599129,-0.015936 0.2236523,0 0.028589,0.00715 0.054973,0.022177 0.083869,0.027957 0.07298,0.014597 0.1636739,0 0.2376305,0 0.021556,0 0.3054286,-0.00209 0.307522,0 0.00659,0.00659 -0.00659,0.021368 0,0.027956 0.00659,0.00659 0.021368,-0.00659 0.027956,0 0.0033,0.0033 0.00246,0.096612 0,0.097848 -0.00833,0.00417 -0.021368,-0.00659 -0.027956,0 -0.013179,0.013179 0.013179,0.042734 0,0.055913 -0.00659,0.00659 -0.021368,-0.00659 -0.027957,0 -0.00659,0.00659 0.00417,0.019622 0,0.027957 -0.00589,0.011787 -0.022064,0.016169 -0.027956,0.027956 -0.00844,0.01688 0.012922,0.070946 0,0.08387 -0.00659,0.00659 -0.021368,-0.00659 -0.027957,0 -0.040116,0.040116 0.024453,0.02445 0.027957,0.027956 0.018637,0.018637 -0.018637,0.093188 0,0.1118262 0.00659,0.00659 0.021368,-0.00659 0.027956,0 0.013978,0.013978 -0.013978,0.069891 0,0.083869 0.03252,0.03252 0.027957,-0.046079 0.027957,0.055913"
       id="path5" />
    <path
       style="fill:none;stroke:#000000;stroke-width:0.2;stroke-linejoin:round"
       d="m 8.2471775,8.0794383 c -0.086085,-0.2190377 0.093188,0.2609265 -0.055913,-0.1118262 -0.01107,-0.027674 -0.00647,-0.1612714 0,-0.1677392 0.00659,-0.00659 0.019621,0.00417 0.027956,0 0.00246,-0.00124 0.0033,-0.094544 0,-0.097848 -0.00659,-0.00659 -0.021368,0.00659 -0.027956,0 -0.00659,-0.00659 0.00659,-0.021368 0,-0.027956 -0.00659,-0.00659 -0.021368,0.00659 -0.027957,0 -0.014735,-0.014735 -0.013221,-0.041179 -0.027956,-0.055913 -0.03405,-0.034051 -0.062461,-0.013097 -0.08387,-0.055913 -0.00417,-0.00833 0.00417,-0.019621 0,-0.027957 -0.00589,-0.011787 -0.022064,-0.016169 -0.027956,-0.027957 -0.00494,-0.00989 -0.00617,-0.3029836 0,-0.3215002 0.00659,-0.019767 0.021368,-0.036145 0.027956,-0.055913 0.00295,-0.00884 -0.00417,-0.019622 0,-0.027956 C 8.0906205,7.0226817 8.2080381,6.9835422 8.2471774,6.9052639 8.2927404,6.8141369 8.1229785,6.691009 8.0794382,6.6256985 c -0.00259,-0.00388 0.00417,-0.011896 0,-0.013978 -0.00833,-0.00417 -0.021368,0.00659 -0.027957,0 -0.00659,-0.00659 0.00225,-0.018915 0,-0.027957 -0.012171,-0.048685 -0.043742,-0.091097 -0.055913,-0.1397826 -0.013348,-0.053395 0.015214,-0.088807 0.027957,-0.1397825 0.00452,-0.018082 -0.010337,-0.040406 0,-0.055913 0.021931,-0.032896 0.066188,-0.048507 0.08387,-0.08387 0.00417,-0.00833 -0.00417,-0.019621 0,-0.027956 0.00589,-0.011787 0.020645,-0.016992 0.027957,-0.027957 0.01156,-0.017338 0.011949,-0.042573 0.027956,-0.055913 0.014758,-0.012298 0.03873,-0.00539 0.055913,-0.013978 0.077524,-0.038762 0.00209,-0.016068 0.041935,-0.055913 0.00659,-0.00659 0.019621,0.00417 0.027956,0 0.011787,-0.00589 0.015454,-0.023789 0.027957,-0.027957 0.017682,-0.00589 0.039243,0.00833 0.055913,0 0.00833,-0.00417 -0.00833,-0.023789 0,-0.027956 0.016671,-0.00833 0.038232,0.00589 0.055913,0 0.012502,-0.00417 0.015454,-0.023789 0.027956,-0.027957 0.1329071,-0.044302 -0.021082,0.044302 0.1118262,0 0.012502,-0.00417 0.015454,-0.023789 0.027957,-0.027956 0.07183,-0.023942 0.1912657,0.021235 0.2655869,0 0.020037,-0.00573 0.036145,-0.021368 0.055913,-0.027957 0.058371,-0.019457 0.1360522,0.014912 0.1956959,0 0.020217,-0.00505 0.036145,-0.021368 0.055913,-0.027956 0.017682,-0.00589 0.042734,0.013179 0.055913,0 0.03252,-0.03252 -0.046079,-0.027956 0.055913,-0.027956"
       id="path6" />
    <path
       style="fill:none;stroke:#000000;stroke-width:0.2;stroke-linejoin:round"
       d="m 4.4171322,0.51719588 c 0.059056,0.1181115 0.00501,-0.0108159 0.027957,0.19569572 0.00424,0.0381876 0.019156,0.0744249 0.027956,0.11182615 0.00984,0.0418158 0.022281,0.0832235 0.027957,0.1258044 0.014261,0.10694935 -0.023873,0.0640823 0.027956,0.16773915 0.015026,0.030052 0.038626,0.055058 0.055913,0.08387 0.021442,0.035736 0.026445,0.082357 0.055913,0.1118262 0.014735,0.014734 0.038575,0.016398 0.055913,0.027956 0.032896,0.021931 0.051698,0.06089 0.08387,0.08387 0.014531,0.037763 0.050123,7.991e-4 0.069891,0.013978 0.021931,0.014621 0.033982,0.041292 0.055913,0.055913 0.00776,0.00517 0.019622,-0.00417 0.027957,0 0.054149,0.027075 0.080948,0.093466 0.1118261,0.1397826 0.00731,0.010965 0.022064,0.016169 0.027956,0.027957 0.018992,0.037981 0.055913,0.1766578 0.055913,0.2236522 0,0.027957 0,0.055913 0,0.08387 0,0.00932 0.00659,0.021367 0,0.027957 -0.00351,0.0035 -0.068073,-0.01216 -0.027956,0.027957 0.051253,0 0.018637,-0.00932 0.027956,0.013978 0.038669,0.096671 0.014584,0.019443 0.083869,0.1118262 0.033951,0.045267 0.013158,0.055367 0.055913,0.08387 0.017338,0.011559 0.038575,0.016398 0.055913,0.027957 0.010964,0.00731 0.016169,0.022063 0.027957,0.027957 0.012502,0.00625 0.035684,-0.012503 0.041935,0 0.015309,0.030619 -0.039938,0.059907 0.055913,0.027957 0.012502,-0.00417 0.016169,-0.022063 0.027956,-0.027957 0.00833,-0.00417 0.019621,0.00417 0.027957,0 0.035639,-0.017819 0.033213,-0.055494 0.055913,-0.08387 0.024699,-0.030873 0.055913,-0.055913 0.08387,-0.08387 0.034381,-0.034381 0.0877,-0.083584 0.1118261,-0.1258044 0.00462,-0.00809 -0.00417,-0.019621 0,-0.027956 0.00589,-0.011788 0.02476,-0.015171 0.027957,-0.027956 0.00662,-0.026465 0.00456,-0.2287847 0,-0.2516088 -0.00409,-0.020433 -0.021368,-0.036145 -0.027957,-0.055913 -0.00498,-0.014957 -0.023246,-0.1024055 -0.027956,-0.1118262 -0.011787,-0.023575 -0.044126,-0.032338 -0.055913,-0.055913 -0.00417,-0.00833 0.00257,-0.018996 0,-0.027956 -0.00689,-0.024126 -0.021063,-0.045765 -0.027957,-0.069891 -0.010602,-0.03711 -0.00842,-0.2095312 0,-0.2516088 -0.054381,-0.077671 0.045805,-0.071395 0.055913,-0.1118261 0,-0.19828802 -0.019767,-0.0163767 0.027957,-0.11182616 0.00417,-0.008335 -0.00517,-0.0202028 0,-0.0279565 0.00578,-0.008669 0.022177,-0.005309 0.027956,-0.0139782 0.00517,-0.007754 -0.00659,-0.0213672 0,-0.0279565 0.00659,-0.006589 0.021368,0.006589 0.027957,0 0.00659,-0.006589 -0.00417,-0.0196215 0,-0.0279565 0.00589,-0.0117875 0.022064,-0.016169 0.027956,-0.0279565 0.00417,-0.008335 -0.00659,-0.0213672 0,-0.0279565 0.00659,-0.006589 0.021368,0.006589 0.027956,0 0.013978,-0.0139782 -0.013978,-0.0698913 0,-0.0838696 0.037275,-0.0372754 0.027957,0.0465942 0.027957,-0.0279565"
       id="path7" />
  </g>
</svg>
