<?xml version="1.0" encoding="UTF-8" standalone="no"?>
<!-- Created with Inkscape (http://www.inkscape.org/) -->

<svg
   width="41.237mm"
   height="8.2469997mm"
   viewBox="0 0 41.237 8.2469997"
   version="1.1"
   id="svg1"
   inkscape:version="1.4.3 (0d15f75042, 2025-12-25)"
   sodipodi:docname="title.svg"
   xmlns:inkscape="http://www.inkscape.org/namespaces/inkscape"
   xmlns:sodipodi="http://sodipodi.sourceforge.net/DTD/sodipodi-0.dtd"
   xmlns="http://www.w3.org/2000/svg"
   xmlns:svg="http://www.w3.org/2000/svg">
  <sodipodi:namedview
     id="namedview1"
     pagecolor="#ffffff"
     bordercolor="#000000"
     borderopacity="0.25"
     inkscape:showpageshadow="2"
     inkscape:pageopacity="0.0"
     inkscape:pagecheckerboard="0"
     inkscape:deskcolor="#d1d1d1"
     inkscape:document-units="mm"
     inkscape:zoom="3.3115078"
     inkscape:cx="80.02397"
     inkscape:cy="40.917917"
     inkscape:window-width="1690"
     inkscape:window-height="1096"
     inkscape:window-x="0"
     inkscape:window-y="0"
     inkscape:window-maximized="1"
     inkscape:current-layer="layer1" />
  <defs
     id="defs1" />
  <g
     inkscape:label="Layer 1"
     inkscape:groupmode="layer"
     id="layer1">
    <path
       style="font-stretch:condensed;font-size:5.30556px;line-height:1.2;font-family:Impact;-inkscape-font-specification:'Impact Condensed';letter-spacing:0.426338px;fill:none;stroke:#000000;stroke-width:0.2;stroke-linejoin:round"
       d="M 0.78911987,1.6573111 H 2.6077249 V 2.4966673 H 1.8797648 V 3.2919832 H 2.561094 V 4.0898897 H 1.8797648 V 5.0121453 H 2.6802619 V 5.8515015 H 0.78911987 Z m 4.75783053,0 V 2.4966673 H 4.899299 V 5.8515015 H 3.8086541 V 2.4966673 H 3.1635933 V 1.6573111 Z M 8.7685517,3.4862786 H 7.6779067 V 2.7557279 q 0,-0.3186445 -0.036268,-0.3963627 -0.033678,-0.080309 -0.1528458,-0.080309 -0.1347114,0 -0.1709799,0.095852 -0.036269,0.095852 -0.036269,0.4144968 v 1.9481354 q 0,0.3056914 0.036269,0.3989532 0.036269,0.093262 0.1632081,0.093262 0.1217585,0 0.158027,-0.093262 0.038859,-0.093262 0.038859,-0.4378123 V 4.1727891 h 1.090645 v 0.1632081 q 0,0.650242 -0.093262,0.9222556 -0.090671,0.2720136 -0.4067251,0.4766714 -0.3134633,0.2046579 -0.774591,0.2046579 -0.4792621,0 -0.7901347,-0.1735706 Q 6.3929664,5.5924409 6.2919328,5.2867495 6.1908992,4.9784674 6.1908992,4.3619033 V 3.1365469 q 0,-0.453356 0.031087,-0.6787387 Q 6.2530737,2.2298349 6.4059194,2.0199959 6.5613558,1.8101568 6.8333693,1.690989 7.1079735,1.5692305 7.4628865,1.5692305 q 0.4818526,0 0.7953159,0.1865236 0.3134633,0.1865236 0.4119063,0.466309 0.098443,0.2771948 0.098443,0.8652623 z M 12.093777,1.6573111 V 5.8515015 H 11.003132 V 4.0898897 H 10.676716 V 5.8515015 H 9.5860712 V 1.6573111 h 1.0906448 v 1.4999606 h 0.326416 V 1.6573111 Z m 4.109068,0 0.624336,4.1941904 H 15.71063 l -0.0544,-0.7538662 h -0.391182 l -0.06477,0.7538662 h -1.129504 l 0.55439,-4.1941904 z M 15.62514,4.3541315 Q 15.54224,3.641715 15.459341,2.5951103 15.293542,3.7971513 15.252092,4.3541315 Z M 21.112408,2.9267078 H 20.099482 V 2.6158352 q 0,-0.2176109 -0.03886,-0.2771948 -0.03886,-0.059584 -0.12953,-0.059584 -0.09844,0 -0.150255,0.080309 -0.04922,0.080309 -0.04922,0.2435169 0,0.2098391 0.05699,0.3160539 0.0544,0.1062148 0.308282,0.25647 0.72796,0.4326311 0.917074,0.7098259 0.189115,0.2771948 0.189115,0.8937589 0,0.4481747 -0.106215,0.6606044 -0.103625,0.2124296 -0.404135,0.3575035 -0.30051,0.1424834 -0.699463,0.1424834 -0.437813,0 -0.748685,-0.1657988 Q 18.9363,5.6079845 18.840447,5.3515146 18.744595,5.0950447 18.744595,4.6235544 V 4.3489503 h 1.012927 v 0.5103492 q 0,0.2357452 0.04145,0.3031009 0.04404,0.067356 0.152846,0.067356 0.108805,0 0.160618,-0.08549 0.0544,-0.08549 0.0544,-0.2538794 0,-0.3704566 -0.101033,-0.4844432 -0.103625,-0.1139867 -0.51035,-0.380819 -0.406725,-0.269423 -0.538846,-0.3911815 -0.13212,-0.1217584 -0.220201,-0.3367787 -0.08549,-0.2150202 -0.08549,-0.5492084 0,-0.4818526 0.121758,-0.7046447 0.12435,-0.222792 0.398954,-0.3471411 0.274604,-0.1269397 0.663195,-0.1269397 0.424859,0 0.722779,0.1373021 0.30051,0.1373021 0.396362,0.3471412 0.09844,0.2072484 0.09844,0.7072353 z M 24.569756,1.6573111 23.94542,3.5510438 24.62934,5.8515015 H 23.502426 L 23.062023,4.0536212 V 5.8515015 H 21.971378 V 1.6573111 h 1.090645 V 3.286802 l 0.484444,-1.6294909 z m 0.675035,0 h 1.818605 v 0.8393562 h -0.72796 v 0.7953159 h 0.681329 v 0.7979065 h -0.681329 v 0.9222556 h 0.800497 v 0.8393562 h -1.891142 z m 4.757831,0 V 2.4966673 H 29.35497 V 5.8515015 H 28.264325 V 2.4966673 h -0.64506 V 1.6573111 Z m 3.221601,1.8289675 H 32.133579 V 2.7557279 q 0,-0.3186445 -0.03627,-0.3963627 -0.03368,-0.080309 -0.152846,-0.080309 -0.134711,0 -0.17098,0.095852 -0.03627,0.095852 -0.03627,0.4144968 v 1.9481354 q 0,0.3056914 0.03627,0.3989532 0.03627,0.093262 0.163209,0.093262 0.121758,0 0.158026,-0.093262 0.03886,-0.093262 0.03886,-0.4378123 V 4.1727891 h 1.090644 v 0.1632081 q 0,0.650242 -0.09326,0.9222556 -0.09067,0.2720136 -0.406725,0.4766714 -0.313464,0.2046579 -0.774591,0.2046579 -0.479262,0 -0.790135,-0.1735706 Q 30.848638,5.5924409 30.747605,5.2867495 30.646571,4.9784674 30.646571,4.3619033 V 3.1365469 q 0,-0.453356 0.03109,-0.6787387 0.03109,-0.2279733 0.183933,-0.4378123 0.155437,-0.2098391 0.42745,-0.3290069 0.274604,-0.1217585 0.629517,-0.1217585 0.481853,0 0.795316,0.1865236 0.313463,0.1865236 0.411906,0.466309 0.09844,0.2771948 0.09844,0.8652623 z M 36.549451,1.6573111 V 5.8515015 H 35.458806 V 4.0898897 H 35.132389 V 5.8515015 H 34.041744 V 1.6573111 h 1.090645 v 1.4999606 h 0.326417 V 1.6573111 Z m 4.717858,2.4558941 q 0,0.6321077 -0.03109,0.8963495 -0.0285,0.2616511 -0.186524,0.479262 -0.155436,0.2176109 -0.422268,0.3341881 -0.266833,0.1165773 -0.621746,0.1165773 -0.336778,0 -0.606201,-0.1088055 Q 39.13265,5.7193806 38.969442,5.4991791 38.806234,5.2789776 38.775147,5.0199171 38.744059,4.7608565 38.744059,4.1132052 V 3.3956074 q 0,-0.6321077 0.0285,-0.8937589 0.03109,-0.2642417 0.186524,-0.4818526 0.158027,-0.2176109 0.424859,-0.3341881 0.266832,-0.1165773 0.621745,-0.1165773 0.336779,0 0.603611,0.1113961 0.269423,0.1088054 0.432631,0.3290069 0.163209,0.2202014 0.194296,0.479262 0.03109,0.2590605 0.03109,0.9067119 z M 40.176664,2.735003 q 0,-0.2927384 -0.03368,-0.3730472 -0.03109,-0.082899 -0.132121,-0.082899 -0.08549,0 -0.13212,0.067356 -0.04404,0.064765 -0.04404,0.3885908 v 1.9584978 q 0,0.3652754 0.0285,0.4507654 0.03109,0.08549 0.139893,0.08549 0.111396,0 0.142483,-0.098443 0.03109,-0.098443 0.03109,-0.4688996 z m 4.234529,0.1917048 H 43.398266 V 2.6158352 q 0,-0.2176109 -0.03886,-0.2771948 -0.03886,-0.059584 -0.129531,-0.059584 -0.09844,0 -0.150255,0.080309 -0.04922,0.080309 -0.04922,0.2435169 0,0.2098391 0.05699,0.3160539 0.0544,0.1062148 0.308282,0.25647 0.72796,0.4326311 0.917075,0.7098259 0.189114,0.2771948 0.189114,0.8937589 0,0.4481747 -0.106215,0.6606044 -0.103624,0.2124296 -0.404135,0.3575035 -0.30051,0.1424834 -0.699463,0.1424834 -0.437812,0 -0.748685,-0.1657988 Q 42.235084,5.6079845 42.139232,5.3515146 42.043379,5.0950447 42.043379,4.6235544 V 4.3489503 h 1.012927 v 0.5103492 q 0,0.2357452 0.04145,0.3031009 0.04404,0.067356 0.152845,0.067356 0.108806,0 0.160618,-0.08549 0.0544,-0.08549 0.0544,-0.2538794 0,-0.3704566 -0.101034,-0.4844432 Q 43.260964,4.2919569 42.854239,4.0251246 42.447514,3.7557016 42.315393,3.6339431 42.183272,3.5121847 42.095191,3.2971644 42.009701,3.0821442 42.009701,2.747956 q 0,-0.4818526 0.121759,-0.7046447 0.124349,-0.222792 0.398953,-0.3471411 0.274604,-0.1269397 0.663195,-0.1269397 0.424859,0 0.722779,0.1373021 0.30051,0.1373021 0.396363,0.3471412 0.09844,0.2072484 0.09844,0.7072353 z"
       id="text1"
       transform="scale(0.91049025,1.0983094)"
       aria-label="ETCH A SKETCH OS" />
    <path
       style="fill:none;stroke:#000000;stroke-width:0.2;stroke-linejoin:round"
       d="M 2.350174,1.81 H 2.9170182"
       id="path1" />
    <path
       style="fill:none;stroke:#000000;stroke-width:0.2;stroke-linejoin:round"
       d="M 5.0689829,2.6938076 H 5.6358271"
       id="path1-0" />
    <path
       style="fill:none;stroke:#000000;stroke-width:0.2;stroke-linejoin:round"
       d="m 8.0030641,3.7835286 0.7389791,0.00564"
       id="path1-0-6"
       sodipodi:nodetypes="cc" />
    <path
       style="fill:none;stroke:#000000;stroke-width:0.2;stroke-linejoin:round"
       d="m 11.020033,6.4307984 h 1.775531"
       id="path2" />
    <path
       style="fill:none;stroke:#000000;stroke-width:0.2;stroke-linejoin:round"
       d="m 14.266073,4.7476522 h 0.890368"
       id="path3" />
    <path
       style="fill:none;stroke:#000000;stroke-width:0.2;stroke-linejoin:round"
       d="m 15.283379,6.4378535 h 2.40242"
       id="path4" />
    <path
       style="fill:none;stroke:#000000;stroke-width:0.2;stroke-linejoin:round"
       d="m 19.320406,5.252031 h 0.688491"
       id="path5" />
    <path
       style="fill:none;stroke:#000000;stroke-width:0.2;stroke-linejoin:round"
       d="m 22.353207,6.435935 h 0.688491"
       id="path5-1" />
    <path
       style="fill:none;stroke:#000000;stroke-width:0.2;stroke-linejoin:round"
       d="m 24.640121,1.8152695 h 0.566191"
       id="path6" />
    <path
       style="fill:none;stroke:#000000;stroke-width:0.2;stroke-linejoin:round"
       d="M 27.262878,2.752283 H 27.92895"
       id="path6-6" />
    <path
       style="fill:none;stroke:#000000;stroke-width:0.2;stroke-linejoin:round"
       d="m 30.187615,4.5760514 h 0.81496"
       id="path6-6-7" />
    <path
       style="fill:none;stroke:#000000;stroke-width:0.200001;stroke-linejoin:round"
       d="m 33.293913,3.9442798 h 2.951963"
       id="path6-6-7-4" />
    <path
       style="fill:none;stroke:#000000;stroke-width:0.2;stroke-linejoin:round"
       d="m 37.624263,3.084708 h 0.619236"
       id="path7" />
  </g>
</svg>
