<?xml version='1.0' encoding='UTF-8' standalone='no'?>
<svg baseProfile="tiny" height="10mm" version="1.2" viewBox="0 0 100 100" width="10mm" xmlns="http://www.w3.org/2000/svg" xmlns:cc="http://creativecommons.org/ns#" xmlns:dc="http://purl.org/dc/elements/1.1/" xmlns:freecad="https://www.freecad.org/wiki/index.php?title=Svg_Namespace" xmlns:inkscape="http://www.inkscape.org/namespaces/inkscape" xmlns:rdf="http://www.w3.org/1999/02/22-rdf-syntax-ns#" xmlns:sodipodi="http://sodipodi.sourceforge.net/DTD/sodipodi-0.dtd" xmlns:svg="http://www.w3.org/2000/svg" xmlns:xlink="http://www.w3.org/1999/xlink">
 <title>FreeCAD SVG Export</title>
 <desc>Drawing page: Page001 exported from FreeCAD document: Unnamed</desc>
 <defs/>
 <g id="Page001" inkscape:groupmode="layer" inkscape:label="TechDraw">
  <g id="template.svg" style="stroke: none;" transform="scale(10.000000, 10.000000)">
   <sodipodi:namedview bordercolor="#000000" borderopacity="0.25" id="namedview1" inkscape:current-layer="layer1" inkscape:cx="396.44049" inkscape:cy="561.25984" inkscape:deskcolor="#d1d1d1" inkscape:document-units="mm" inkscape:pagecheckerboard="0" inkscape:pageopacity="0.0" inkscape:showpageshadow="2" inkscape:window-height="1096" inkscape:window-maximized="1" inkscape:window-width="1690" inkscape:window-x="0" inkscape:window-y="0" inkscape:zoom="0.80087682" pagecolor="#ffffff"/>
   <defs id="defs1"/>
  </g>
  <g fill="none" fill-rule="evenodd" id="DrawingContent" stroke="black" stroke-linecap="square" stroke-linejoin="bevel" stroke-width="1">
   <g fill="#f1f3f5" fill-opacity="0" font-family="Sans Serif" font-size="31.75" font-style="normal" font-weight="400" stroke="none" transform="matrix(1,0,0,1,45,50)">
    <path d="M-17.9289,22.9289 C-21.3024,19.5555 -26.589,19.0348 -30.5557,21.6853 C-34.5224,24.3358 -36.0645,29.4192 -34.2388,33.8268 C-32.4131,38.2344 -27.7282,40.7386 -23.0491,39.8079 C-18.37,38.8771 -15,34.7707 -15,30 C-15,27.3478 -16.0536,24.8043 -17.9289,22.9289 L-11.346,16.346 C-17.6194,10.0726 -26.128,6.54822 -35,6.54822 L-35,-2.76142 C-23.659,-2.76142 -12.7824,1.74378 -4.76311,9.76311 L1.81981,3.18019 C-7.94541,-6.58502 -21.1899,-12.0711 -35,-12.0711 L-35,-21.3807 C-18.7208,-21.3807 -3.1084,-14.9138 8.40272,-3.40272 L14.9856,-9.98563 C1.72862,-23.2426 -16.2518,-30.6904 -35,-30.6904 L-35,-40 C9.18278,-40 45,-4.18278 45,40 L35.6904,40 C35.6904,21.2518 28.2426,3.27138 14.9856,-9.98563 L8.40272,-3.40272 C19.9138,8.1084 26.3807,23.7208 26.3807,40 L17.0711,40 C17.0711,26.1899 11.585,12.9454 1.81981,3.18019 L-4.76311,9.76311 C3.25622,17.7824 7.76142,28.659 7.76142,40 L-1.54822,40 C-1.54822,31.128 -5.07259,22.6194 -11.346,16.346 L-17.9289,22.9289" fill-rule="evenodd" vector-effect="non-scaling-stroke"/>
   </g>
   <g fill="#f1f3f5" fill-opacity="0" font-family="Sans Serif" font-size="31.75" font-style="normal" font-weight="400" stroke="none" transform="matrix(1,0,0,1,45,50)">
    <path d="M35.6904,40 C35.6904,21.2518 28.2426,3.27138 14.9856,-9.98563 C1.72862,-23.2426 -16.2518,-30.6904 -35,-30.6904 L-35,-40 C9.18278,-40 45,-4.18278 45,40 L35.6904,40" fill-rule="evenodd" vector-effect="non-scaling-stroke"/>
   </g>
   <g fill="#f1f3f5" fill-opacity="0" font-family="Sans Serif" font-size="31.75" font-style="normal" font-weight="400" stroke="none" transform="matrix(1,0,0,1,45,50)">
    <path d="M17.0711,40 C17.0711,26.1899 11.585,12.9454 1.81981,3.18019 C-7.94541,-6.58502 -21.1899,-12.0711 -35,-12.0711 L-35,-21.3807 C-18.7208,-21.3807 -3.1084,-14.9138 8.40272,-3.40272 C19.9138,8.1084 26.3807,23.7208 26.3807,40 L17.0711,40" fill-rule="evenodd" vector-effect="non-scaling-stroke"/>
   </g>
   <g fill="#f1f3f5" fill-opacity="0" font-family="Sans Serif" font-size="31.75" font-style="normal" font-weight="400" stroke="none" transform="matrix(1,0,0,1,45,50)">
    <path d="M-1.54822,40 L7.76142,40 C7.76142,28.659 3.25622,17.7824 -4.76311,9.76311 C-12.7824,1.74378 -23.659,-2.76142 -35,-2.76142 L-35,6.54822 C-26.128,6.54822 -17.6194,10.0726 -11.346,16.346 C-5.07259,22.6194 -1.54822,31.128 -1.54822,40 " fill-rule="evenodd" vector-effect="non-scaling-stroke"/>
   </g>
   <g fill="#f1f3f5" fill-opacity="0" font-family="Sans Serif" font-size="31.75" font-style="normal" font-weight="400" stroke="none" transform="matrix(1,0,0,1,45,50)">
    <path d="M-15,30 C-15,27.3478 -16.0536,24.8043 -17.9289,22.9289 C-21.3024,19.5555 -26.589,19.0348 -30.5557,21.6853 C-34.5224,24.3358 -36.0645,29.4192 -34.2388,33.8268 C-32.4131,38.2344 -27.7282,40.7386 -23.0491,39.8079 C-18.37,38.8771 -15,34.7707 -15,30 " fill-rule="evenodd" vector-effect="non-scaling-stroke"/>
   </g>
   <g fill="none" font-family="Sans Serif" font-size="31.75" font-style="normal" font-weight="400" stroke="#212529" stroke-linecap="round" stroke-linejoin="bevel" stroke-opacity="1" stroke-width="2" transform="matrix(1,0,0,1,45,50)">
    <path d="M-15,30 C-15,35.5228 -19.4772,40 -25,40 C-30.5228,40 -35,35.5228 -35,30 C-35,24.4772 -30.5228,20 -25,20 C-19.4772,20 -15,24.4772 -15,30 " fill-rule="evenodd" vector-effect="none"/>
   </g>
   <g fill="none" font-family="Sans Serif" font-size="31.75" font-style="normal" font-weight="400" stroke="#212529" stroke-linecap="round" stroke-linejoin="bevel" stroke-opacity="1" stroke-width="2" transform="matrix(1,0,0,1,45,50)">
    <path d="M7.76142,40 C7.76142,16.3835 -11.3835,-2.76142 -35,-2.76142 " fill-rule="evenodd" vector-effect="none"/>
   </g>
   <g fill="none" font-family="Sans Serif" font-size="31.75" font-style="normal" font-weight="400" stroke="#212529" stroke-linecap="round" stroke-linejoin="bevel" stroke-opacity="1" stroke-width="2" transform="matrix(1,0,0,1,45,50)">
    <path d="M-1.54822,40 L7.76142,40" fill-rule="evenodd" vector-effect="none"/>
   </g>
   <g fill="none" font-family="Sans Serif" font-size="31.75" font-style="normal" font-weight="400" stroke="#212529" stroke-linecap="round" stroke-linejoin="bevel" stroke-opacity="1" stroke-width="2" transform="matrix(1,0,0,1,45,50)">
    <path d="M-1.54822,40 C-1.54822,21.5251 -16.5251,6.54822 -35,6.54822 " fill-rule="evenodd" vector-effect="none"/>
   </g>
   <g fill="none" font-family="Sans Serif" font-size="31.75" font-style="normal" font-weight="400" stroke="#212529" stroke-linecap="round" stroke-linejoin="bevel" stroke-opacity="1" stroke-width="2" transform="matrix(1,0,0,1,45,50)">
    <path d="M-35,-2.76142 L-35,6.54822" fill-rule="evenodd" vector-effect="none"/>
   </g>
   <g fill="none" font-family="Sans Serif" font-size="31.75" font-style="normal" font-weight="400" stroke="#212529" stroke-linecap="round" stroke-linejoin="bevel" stroke-opacity="1" stroke-width="2" transform="matrix(1,0,0,1,45,50)">
    <path d="M-35,-2.76142 L-45,-2.76142" fill-rule="evenodd" vector-effect="none"/>
   </g>
   <g fill="none" font-family="Sans Serif" font-size="31.75" font-style="normal" font-weight="400" stroke="#212529" stroke-linecap="round" stroke-linejoin="bevel" stroke-opacity="1" stroke-width="2" transform="matrix(1,0,0,1,45,50)">
    <path d="M17.0711,40 C17.0711,11.2419 -6.24194,-12.0711 -35,-12.0711 " fill-rule="evenodd" vector-effect="none"/>
   </g>
   <g fill="none" font-family="Sans Serif" font-size="31.75" font-style="normal" font-weight="400" stroke="#212529" stroke-linecap="round" stroke-linejoin="bevel" stroke-opacity="1" stroke-width="2" transform="matrix(1,0,0,1,45,50)">
    <path d="M-35,-21.3807 L-35,-12.0711" fill-rule="evenodd" vector-effect="none"/>
   </g>
   <g fill="none" font-family="Sans Serif" font-size="31.75" font-style="normal" font-weight="400" stroke="#212529" stroke-linecap="round" stroke-linejoin="bevel" stroke-opacity="1" stroke-width="2" transform="matrix(1,0,0,1,45,50)">
    <path d="M26.3807,40 C26.3807,6.10037 -1.10037,-21.3807 -35,-21.3807 " fill-rule="evenodd" vector-effect="none"/>
   </g>
   <g fill="none" font-family="Sans Serif" font-size="31.75" font-style="normal" font-weight="400" stroke="#212529" stroke-linecap="round" stroke-linejoin="bevel" stroke-opacity="1" stroke-width="2" transform="matrix(1,0,0,1,45,50)">
    <path d="M17.0711,40 L26.3807,40" fill-rule="evenodd" vector-effect="none"/>
   </g>
   <g fill="none" font-family="Sans Serif" font-size="31.75" font-style="normal" font-weight="400" stroke="#212529" stroke-linecap="round" stroke-linejoin="bevel" stroke-opacity="1" stroke-width="2" transform="matrix(1,0,0,1,45,50)">
    <path d="M35.6904,40 C35.6904,0.958794 4.04121,-30.6904 -35,-30.6904 " fill-rule="evenodd" vector-effect="none"/>
   </g>
   <g fill="none" font-family="Sans Serif" font-size="31.75" font-style="normal" font-weight="400" stroke="#212529" stroke-linecap="round" stroke-linejoin="bevel" stroke-opacity="1" stroke-width="2" transform="matrix(1,0,0,1,45,50)">
    <path d="M-35,-30.6904 L-35,-40" fill-rule="evenodd" vector-effect="none"/>
   </g>
   <g fill="none" font-family="Sans Serif" font-size="31.75" font-style="normal" font-weight="400" stroke="#212529" stroke-linecap="round" stroke-linejoin="bevel" stroke-opacity="1" stroke-width="2" transform="matrix(1,0,0,1,45,50)">
    <path d="M45,40 C45,-4.18278 9.18278,-40 -35,-40 " fill-rule="evenodd" vector-effect="none"/>
   </g>
   <g fill="none" font-family="Sans Serif" font-size="31.75" font-style="normal" font-weight="400" stroke="#212529" stroke-linecap="round" stroke-linejoin="bevel" stroke-opacity="1" stroke-width="2" transform="matrix(1,0,0,1,45,50)">
    <path d="M35.6904,40 L45,40" fill-rule="evenodd" vector-effect="none"/>
   </g>
   <g fill="none" font-family="Sans Serif" font-size="31.75" font-style="normal" font-weight="400" stroke="#212529" stroke-linecap="round" stroke-linejoin="bevel" stroke-opacity="1" stroke-width="2" transform="matrix(1,0,0,1,45,50)">
    <path d="M-17.9289,22.9289 L-11.346,16.346" fill-rule="evenodd" vector-effect="none"/>
   </g>
   <g fill="none" font-family="Sans Serif" font-size="31.75" font-style="normal" font-weight="400" stroke="#212529" stroke-linecap="round" stroke-linejoin="bevel" stroke-opacity="1" stroke-width="2" transform="matrix(1,0,0,1,45,50)">
    <path d="M-4.76311,9.76311 L1.81981,3.18019" fill-rule="evenodd" vector-effect="none"/>
   </g>
   <g fill="none" font-family="Sans Serif" font-size="31.75" font-style="normal" font-weight="400" stroke="#212529" stroke-linecap="round" stroke-linejoin="bevel" stroke-opacity="1" stroke-width="2" transform="matrix(1,0,0,1,45,50)">
    <path d="M8.40272,-3.40272 L14.9856,-9.98563" fill-rule="evenodd" vector-effect="none"/>
   </g>
  </g>
 </g>
</svg>
